<svg width="77" height="14" viewBox="0 0 77 14" fill="none" xmlns="http://www.w3.org/2000/svg">
<path d="M5.34375 8.45312L7.01562 10.6406C6.64062 10.7734 6.23438 10.8438 5.8125 10.8438C3.76562 10.8359 2.17969 9.25781 2.17188 6.34375C2.17969 3.42188 3.76562 1.84375 5.8125 1.84375C7.85938 1.84375 9.44531 3.42188 9.45312 6.34375C9.44531 8.03125 8.91406 9.27344 8.07031 10.0156L6.875 8.45312H5.34375ZM0.8125 6.34375C0.804688 9.92188 2.90625 12.1562 5.8125 12.1562C6.54688 12.1562 7.23438 12.0156 7.84375 11.7422L8.82812 13.0625H10.3594L8.88281 11.0938C10.0859 10.1016 10.8203 8.46094 10.8125 6.34375C10.8203 2.76562 8.71094 0.53125 5.8125 0.53125C2.90625 0.53125 0.804688 2.76562 0.8125 6.34375ZM18.0625 8.51562C18.0547 10.1016 16.8516 10.8203 15.8906 10.8125C14.8047 10.8203 14.0469 10.0312 14.0469 8.8125V3.51562H12.7031V8.90625C12.6953 11.0625 13.8438 12.1094 15.4531 12.1094C16.7266 12.1094 17.5703 11.4219 17.9688 10.5625H18.0625V12H19.3906V3.51562H18.0625V8.51562ZM21.5469 12H22.8906V3.51562H21.5469V12ZM21.2812 1.21875C21.2734 1.71094 21.7031 2.10938 22.2188 2.10938C22.7344 2.10938 23.1641 1.71094 23.1719 1.21875C23.1641 0.71875 22.7344 0.320312 22.2188 0.328125C21.7031 0.320312 21.2734 0.71875 21.2812 1.21875ZM28.5 12.1719C30.3828 12.1797 31.6328 11.0156 31.8438 9.5H30.5C30.2656 10.4297 29.5 10.9688 28.5 10.9688C26.9609 10.9688 25.9766 9.71094 25.9688 7.75C25.9766 5.84375 26.9844 4.59375 28.5 4.59375C29.6328 4.59375 30.3047 5.30469 30.5 6.07812H31.8438C31.6328 4.47656 30.2734 3.40625 28.4688 3.40625C26.1641 3.40625 24.625 5.21875 24.625 7.79688C24.625 10.3438 26.0938 12.1797 28.5 12.1719ZM33.5 12H34.8438V8.83594L35.7422 8L38.8906 12H40.5938L36.75 7.14844L40.3281 3.51562H38.6719L35 7.26562H34.8438V0.6875H33.5V12ZM46.4688 0.6875H44.9844L49.125 12H50.6094L54.75 0.6875H53.2656L49.9219 10.1719H49.7969L46.4688 0.6875ZM65.2969 6.34375C65.3047 2.76562 63.1953 0.53125 60.2969 0.53125C57.3906 0.53125 55.2891 2.76562 55.2969 6.34375C55.2891 9.92188 57.3906 12.1562 60.2969 12.1562C63.1953 12.1562 65.3047 9.92188 65.2969 6.34375ZM56.6562 6.34375C56.6641 3.42188 58.25 1.84375 60.2969 1.84375C62.3438 1.84375 63.9297 3.42188 63.9375 6.34375C63.9297 9.25781 62.3438 10.8359 60.2969 10.8438C58.25 10.8359 56.6641 9.25781 56.6562 6.34375ZM70.875 12C74.3203 12 76.2656 9.85938 76.2656 6.32812C76.2656 2.80469 74.3203 0.6875 71.0156 0.6875H67.3594V12H70.875ZM68.7656 10.75V1.9375H70.9219C73.5547 1.9375 74.8906 3.59375 74.8906 6.32812C74.8906 9.07031 73.5547 10.75 70.7812 10.75H68.7656Z" fill="white"/>
</svg>
