<svg width="34" height="28" viewBox="0 0 34 28" fill="none" xmlns="http://www.w3.org/2000/svg">
<path d="M11.0003 19.3681H6.5166V12.1431H7.63859V18.3948H11.0018L11.0003 19.3681Z" fill="white" stroke="white" stroke-width="0.2" stroke-linejoin="round"/>
<path d="M12.4834 19.3681V12.1431H13.6054V19.3681H12.4834Z" fill="white" stroke="white" stroke-width="0.2" stroke-linejoin="round"/>
<path d="M17.6629 19.3681L15.0859 12.1431H16.3029L18.2692 18.1044H18.3004L20.2724 12.1431H21.4695L18.8912 19.3681H17.6629Z" fill="white" stroke="white" stroke-width="0.2" stroke-linejoin="round"/>
<path d="M27.5355 19.3681H22.9512V12.1431H27.5355V13.1092H24.0732V15.2215H27.3513V16.148H24.0732V18.3906H27.5355V19.3681Z" fill="white" stroke="white" stroke-width="0.2" stroke-linejoin="round"/>
<g opacity="0.901">
<g opacity="0.998">
<path d="M29.7496 5.34766H4.24961C2.37184 5.34766 0.849609 6.86989 0.849609 8.74766V22.9143C0.849609 24.7921 2.37184 26.3143 4.24961 26.3143H29.7496C31.6274 26.3143 33.1496 24.7921 33.1496 22.9143V8.74766C33.1496 6.86989 31.6274 5.34766 29.7496 5.34766Z" stroke="white" stroke-width="1.2" stroke-linecap="round" stroke-linejoin="round"/>
</g>
<g opacity="0.998">
<path d="M15.9441 5.2085L11.6162 0.958496" stroke="white" stroke-width="1.2" stroke-linecap="round" stroke-linejoin="round"/>
<path d="M17.9844 5.2085L22.3123 0.958496" stroke="white" stroke-width="1.2" stroke-linecap="round" stroke-linejoin="round"/>
</g>
</g>
</svg>
