<svg width="56" height="16" viewBox="0 0 56 16" fill="none" xmlns="http://www.w3.org/2000/svg">
<rect width="56" height="16" rx="2" fill="#C73E4E"/>
<path d="M9.00586 9.00488L9.94629 10.2354C9.73535 10.3101 9.50684 10.3496 9.26953 10.3496C8.11816 10.3452 7.22607 9.45752 7.22168 7.81836C7.22607 6.1748 8.11816 5.28711 9.26953 5.28711C10.4209 5.28711 11.313 6.1748 11.3174 7.81836C11.313 8.76758 11.0142 9.46631 10.5396 9.88379L9.86719 9.00488H9.00586ZM6.45703 7.81836C6.45264 9.83105 7.63477 11.0879 9.26953 11.0879C9.68262 11.0879 10.0693 11.0088 10.4121 10.855L10.9658 11.5977H11.8271L10.9966 10.4902C11.6733 9.93213 12.0864 9.00928 12.082 7.81836C12.0864 5.80566 10.8999 4.54883 9.26953 4.54883C7.63477 4.54883 6.45264 5.80566 6.45703 7.81836ZM16.1602 9.04004C16.1558 9.93213 15.479 10.3364 14.9385 10.332C14.3276 10.3364 13.9014 9.89258 13.9014 9.20703V6.22754H13.1455V9.25977C13.1411 10.4727 13.7871 11.0615 14.6924 11.0615C15.4087 11.0615 15.8833 10.6748 16.1074 10.1914H16.1602V11H16.9072V6.22754H16.1602V9.04004ZM18.1201 11H18.876V6.22754H18.1201V11ZM17.9707 4.93555C17.9663 5.2124 18.208 5.43652 18.498 5.43652C18.7881 5.43652 19.0298 5.2124 19.0342 4.93555C19.0298 4.6543 18.7881 4.43018 18.498 4.43457C18.208 4.43018 17.9663 4.6543 17.9707 4.93555ZM22.0312 11.0967C23.0903 11.1011 23.7935 10.4463 23.9121 9.59375H23.1562C23.0244 10.1167 22.5938 10.4199 22.0312 10.4199C21.1655 10.4199 20.6118 9.7124 20.6074 8.60938C20.6118 7.53711 21.1787 6.83398 22.0312 6.83398C22.6685 6.83398 23.0464 7.23389 23.1562 7.66895H23.9121C23.7935 6.76807 23.0288 6.16602 22.0137 6.16602C20.7173 6.16602 19.8516 7.18555 19.8516 8.63574C19.8516 10.0684 20.6777 11.1011 22.0312 11.0967ZM24.8438 11H25.5996V9.22021L26.105 8.75L27.876 11H28.834L26.6719 8.271L28.6846 6.22754H27.7529L25.6875 8.33691H25.5996V4.63672H24.8438V11ZM32.1387 4.63672H31.3037L33.6328 11H34.4678L36.7969 4.63672H35.9619L34.0811 9.97168H34.0107L32.1387 4.63672ZM42.7295 7.81836C42.7339 5.80566 41.5474 4.54883 39.917 4.54883C38.2822 4.54883 37.1001 5.80566 37.1045 7.81836C37.1001 9.83105 38.2822 11.0879 39.917 11.0879C41.5474 11.0879 42.7339 9.83105 42.7295 7.81836ZM37.8691 7.81836C37.8735 6.1748 38.7656 5.28711 39.917 5.28711C41.0684 5.28711 41.9604 6.1748 41.9648 7.81836C41.9604 9.45752 41.0684 10.3452 39.917 10.3496C38.7656 10.3452 37.8735 9.45752 37.8691 7.81836ZM45.8672 11C47.8052 11 48.8994 9.7959 48.8994 7.80957C48.8994 5.82764 47.8052 4.63672 45.9463 4.63672H43.8896V11H45.8672ZM44.6807 10.2969V5.33984H45.8936C47.3745 5.33984 48.126 6.27148 48.126 7.80957C48.126 9.35205 47.3745 10.2969 45.8145 10.2969H44.6807Z" fill="white"/>
</svg>
