<svg width="52" height="52" viewBox="0 0 52 52" fill="none" xmlns="http://www.w3.org/2000/svg">
<rect width="52" height="52" rx="26" fill="#222121"/>
<g clip-path="url(#clip0_14_462)">
<path d="M38.7106 19.4823C38.7309 19.7665 38.7309 20.0508 38.7309 20.3351C38.7309 29.0051 32.132 38.9949 20.0711 38.9949C16.3553 38.9949 12.9036 37.9188 10 36.0508C10.5279 36.1117 11.0355 36.132 11.5838 36.132C14.6497 36.132 17.4721 35.0965 19.7259 33.33C16.8426 33.2691 14.4264 31.3808 13.5939 28.7818C14 28.8426 14.4061 28.8833 14.8325 28.8833C15.4213 28.8833 16.0102 28.802 16.5584 28.6599C13.5533 28.0508 11.2994 25.4112 11.2994 22.2234V22.1422C12.1725 22.6295 13.1878 22.9341 14.2639 22.9746C12.4974 21.7969 11.3401 19.7868 11.3401 17.5127C11.3401 16.2944 11.6649 15.1777 12.2334 14.2031C15.4619 18.1828 20.3147 20.7817 25.7563 21.066C25.6548 20.5787 25.5938 20.0711 25.5938 19.5635C25.5938 15.9493 28.5177 13.0051 32.1522 13.0051C34.0405 13.0051 35.7461 13.797 36.9441 15.0762C38.4263 14.7919 39.8476 14.2437 41.1065 13.4924C40.6191 15.0153 39.5836 16.2945 38.2233 17.1066C39.5431 16.9646 40.8223 16.599 41.9999 16.0914C41.1066 17.3909 39.9898 18.5482 38.7106 19.4823Z" fill="#6B6B6B"/>
</g>
<defs>
<clipPath id="clip0_14_462">
<rect width="32" height="32" fill="white" transform="translate(10 10)"/>
</clipPath>
</defs>
</svg>
