<svg width="52" height="52" viewBox="0 0 52 52" fill="none" xmlns="http://www.w3.org/2000/svg">
<rect width="52" height="52" rx="26" fill="#222121"/>
<g clip-path="url(#clip0_14_459)">
<path d="M26.0065 17.7071C21.4202 17.7071 17.7209 21.4064 17.7209 25.9927C17.7209 30.579 21.4202 34.2784 26.0065 34.2784C30.5928 34.2784 34.2922 30.579 34.2922 25.9927C34.2922 21.4064 30.5928 17.7071 26.0065 17.7071ZM26.0065 31.3795C23.0427 31.3795 20.6198 28.9637 20.6198 25.9927C20.6198 23.0217 23.0355 20.606 26.0065 20.606C28.9775 20.606 31.3933 23.0217 31.3933 25.9927C31.3933 28.9637 28.9703 31.3795 26.0065 31.3795ZM36.5637 17.3681C36.5637 18.4426 35.6984 19.3007 34.6311 19.3007C33.5566 19.3007 32.6985 18.4354 32.6985 17.3681C32.6985 16.3009 33.5639 15.4355 34.6311 15.4355C35.6984 15.4355 36.5637 16.3009 36.5637 17.3681ZM42.0514 19.3296C41.9288 16.7408 41.3375 14.4476 39.441 12.5583C37.5516 10.6689 35.2585 10.0776 32.6697 9.9478C30.0015 9.79637 22.0043 9.79637 19.3362 9.9478C16.7546 10.0704 14.4614 10.6617 12.5648 12.551C10.6683 14.4404 10.0842 16.7335 9.9544 19.3224C9.80296 21.9905 9.80296 29.9877 9.9544 32.6559C10.077 35.2447 10.6683 37.5378 12.5648 39.4272C14.4614 41.3165 16.7473 41.9078 19.3362 42.0376C22.0043 42.1891 30.0015 42.1891 32.6697 42.0376C35.2585 41.915 37.5516 41.3237 39.441 39.4272C41.3303 37.5378 41.9216 35.2447 42.0514 32.6559C42.2029 29.9877 42.2029 21.9977 42.0514 19.3296ZM38.6045 35.5187C38.042 36.9321 36.9531 38.021 35.5325 38.5907C33.4052 39.4344 28.3574 39.2397 26.0065 39.2397C23.6557 39.2397 18.6006 39.4272 16.4805 38.5907C15.0671 38.0282 13.9782 36.9393 13.4086 35.5187C12.5648 33.3914 12.7596 28.3436 12.7596 25.9927C12.7596 23.6419 12.5721 18.5868 13.4086 16.4667C13.971 15.0533 15.0599 13.9644 16.4805 13.3948C18.6078 12.551 23.6557 12.7457 26.0065 12.7457C28.3574 12.7457 33.4124 12.5583 35.5325 13.3948C36.9459 13.9572 38.0348 15.0461 38.6045 16.4667C39.4482 18.594 39.2535 23.6419 39.2535 25.9927C39.2535 28.3436 39.4482 33.3986 38.6045 35.5187Z" fill="#6B6B6B"/>
</g>
<defs>
<clipPath id="clip0_14_459">
<rect width="32.3062" height="36.9213" fill="white" transform="translate(9.84668 7.53931)"/>
</clipPath>
</defs>
</svg>
