<svg width="111" height="27" viewBox="0 0 111 27" fill="none" xmlns="http://www.w3.org/2000/svg">
<path fill-rule="evenodd" clip-rule="evenodd" d="M28.6668 7.45108C28.6668 3.05941 24.0216 0.958496 18.5008 0.958496C12.6004 0.958496 7.19581 3.56091 5.20965 7.62533C4.65147 8.71085 4.36009 9.91379 4.35965 11.1344C4.34345 12.1815 4.63935 13.2098 5.20965 14.0882C5.74251 14.7925 6.44562 15.3498 7.25296 15.7079C8.0603 16.066 8.94539 16.213 9.82515 16.1352C12.5423 16.1352 14.7325 14.6435 14.7325 12.0127C14.7344 11.9087 14.7138 11.8054 14.6722 11.71C14.6305 11.6146 14.5688 11.5293 14.4913 11.46C14.4137 11.3906 14.322 11.3388 14.2226 11.308C14.1232 11.2772 14.0183 11.2683 13.9151 11.2817C13.2138 11.2817 13.0396 11.779 13.0651 12.0127C13.1279 12.48 13.0892 12.9553 12.9515 13.4062C12.8139 13.8571 12.5805 14.273 12.2674 14.6255C11.9544 14.978 11.5689 15.2588 11.1374 15.4487C10.7059 15.6385 10.2385 15.7331 9.76706 15.7258C7.34315 15.7258 6.32031 13.649 6.32031 11.4277C6.32031 6.89433 9.73873 3.91225 13.2733 2.59616C14.9353 1.97455 16.6982 1.66712 18.4725 1.6895C22.5043 1.6895 25.7754 3.23933 25.7754 7.35616C25.7242 9.05867 25.0444 10.6819 23.8673 11.913C22.6901 13.144 21.0989 13.8957 19.4004 14.023L19.5421 13.5555C20.1386 10.9529 21.1549 8.46478 22.5511 6.18883C22.6593 6.00066 22.7865 5.82407 22.9307 5.66183L22.7267 5.42808C22.4163 5.60592 22.1228 5.81172 21.8498 6.04291C15.1915 11.2194 14.9846 25.8408 6.13331 25.8408C5.83038 25.8516 5.52713 25.8322 5.22806 25.7827C4.42157 25.715 3.67358 25.3344 3.14409 24.7223C2.6146 24.1102 2.34563 23.3153 2.39473 22.5074C2.39473 22.1858 2.51231 21.7183 2.51231 21.4548C2.51822 21.3353 2.50002 21.2158 2.45879 21.1034C2.41757 20.991 2.35416 20.8881 2.27235 20.8007C2.19054 20.7134 2.09199 20.6434 1.98256 20.5949C1.87314 20.5464 1.75507 20.5204 1.6354 20.5184H1.55748C0.768397 20.5184 0.446814 21.1616 0.424147 22.0385C0.366064 24.6409 2.26581 26.1327 5.21531 26.4302C5.5369 26.4302 5.85848 26.4599 6.20698 26.4599C13.1302 26.4599 17.3661 21.2253 19.178 14.8801C20.0896 14.7585 20.9898 14.5628 21.8696 14.295C25.0826 13.4181 28.6696 11.2534 28.6696 7.4525" fill="white"/>
<path fill-rule="evenodd" clip-rule="evenodd" d="M67.4678 13.9622C67.0803 16.262 66.1929 18.4488 64.8682 20.3683C64.3426 21.1574 63.8765 21.36 63.4671 21.36C62.8834 21.36 62.7375 20.8925 62.8239 20.2267C63.2306 18.0977 64.0758 16.0767 65.3059 14.2922C65.9491 13.4153 66.3571 13.064 66.8544 13.064C67.3219 13.064 67.4678 13.4734 67.4678 13.9707M40.5412 20.6942C40.1913 20.6942 39.9278 20.5766 39.9278 20.1091C40.2317 18.2675 41.0062 16.5357 42.176 15.0813C42.5226 14.52 42.9916 14.0444 43.548 13.6902C44.1045 13.3359 44.7338 13.1122 45.389 13.0357L43.842 16.4852C42.6733 19.1457 41.4762 20.6942 40.5412 20.6942ZM25.3545 20.6942C25.0046 20.6942 24.7709 20.5766 24.7709 20.1091C25.101 18.2755 25.8726 16.5499 27.0191 15.0813C27.3656 14.52 27.8347 14.0444 28.3911 13.6902C28.9475 13.3359 29.5769 13.1122 30.2321 13.0357L28.7134 16.4852C27.5447 19.0862 26.2895 20.6942 25.3545 20.6942ZM94.5388 8.97266H92.0852L91.5596 10.259L90.5963 12.4222H89.4629L89.113 13.1532H90.3101L88.8793 16.2812C87.8564 18.5026 86.2797 20.6729 85.3744 20.6729C85.1704 20.6729 85.0528 20.5851 85.0528 20.3811C85.086 20.0565 85.1752 19.7402 85.3164 19.4461C85.6082 18.7732 86.0757 17.8084 86.4256 17.0788C87.0394 16.0144 87.483 14.8605 87.7403 13.659C87.7506 13.4633 87.7188 13.2676 87.6468 13.0853C87.5749 12.903 87.4645 12.7383 87.3233 12.6024C87.182 12.4666 87.0132 12.3627 86.8282 12.2979C86.6433 12.233 86.4465 12.2088 86.2514 12.2267C85.6528 12.2775 85.0712 12.4517 84.5433 12.7384C84.0154 13.0252 83.5527 13.4182 83.1843 13.8927L83.7977 12.4307H81.4857L79.6171 16.6694C78.8861 18.1725 77.3674 20.6517 76.4041 20.6517C76.2001 20.6517 76.1123 20.5341 76.1123 20.3301C76.1321 20.1486 76.1799 19.9713 76.2539 19.8045C76.3418 19.6288 77.451 16.9981 77.451 16.9981L79.4655 12.35H77.0119L75.0285 16.8833C74.4449 18.2858 72.9035 20.6545 71.9034 20.6545C71.8608 20.6609 71.8173 20.6582 71.7759 20.6467C71.7344 20.6351 71.6959 20.6148 71.6628 20.5872C71.6297 20.5597 71.6029 20.5254 71.584 20.4867C71.5652 20.448 71.5548 20.4057 71.5534 20.3627V20.3046C71.6015 19.9478 71.7103 19.6018 71.875 19.2817L72.8978 17.0023L75.0228 12.3542H72.5692L72.1017 13.4068C71.9495 13.82 71.6864 14.1832 71.3413 14.4567C70.9961 14.7301 70.5823 14.9031 70.1453 14.9567C69.6778 14.9567 69.444 14.781 69.3576 14.6053C69.356 14.2736 69.2861 13.9457 69.1523 13.6421C69.0184 13.3386 68.8235 13.0659 68.5796 12.841C68.3357 12.6161 68.0481 12.4438 67.7347 12.335C67.4213 12.2261 67.0888 12.183 66.758 12.2083C65.8557 12.2329 64.9752 12.4909 64.2023 12.9572C63.4294 13.4235 62.7905 14.0821 62.3479 14.8688C61.7031 15.8618 61.2108 16.9458 60.8873 18.0847C60.0118 19.5169 59.1052 20.6347 58.3756 20.6347C58.3319 20.6411 58.2873 20.6372 58.2453 20.6233C58.2034 20.6094 58.1652 20.5859 58.134 20.5547C58.1027 20.5234 58.0792 20.4853 58.0653 20.4434C58.0515 20.4014 58.0476 20.3568 58.054 20.3131C58.1126 19.9687 58.221 19.6347 58.3756 19.3214L59.9821 15.9016C60.3817 15.146 60.639 14.3234 60.7414 13.4748C60.7449 13.3014 60.7118 13.1292 60.6443 12.9694C60.5769 12.8096 60.4766 12.6658 60.3499 12.5473C60.2233 12.4288 60.0731 12.3383 59.9092 12.2816C59.7453 12.2249 59.5712 12.2033 59.3984 12.2182C58.7401 12.2651 58.0979 12.4446 57.5107 12.746C56.9235 13.0474 56.4033 13.4644 55.9814 13.9721C56.0294 13.8012 56.0491 13.6237 56.0395 13.4465C56.0626 13.2774 56.0458 13.1052 55.9905 12.9438C55.9352 12.7823 55.8428 12.6361 55.7208 12.5167C55.5989 12.3973 55.4506 12.3082 55.288 12.2563C55.1254 12.2045 54.9529 12.1915 54.7844 12.2182C54.1685 12.2708 53.571 12.4545 53.032 12.757C52.493 13.0595 52.0249 13.4738 51.6592 13.9721L52.3009 12.3939H50.081L48.1827 16.6609C47.2774 18.6442 45.8466 20.6361 45.0292 20.6361C44.8535 20.6361 44.7374 20.5482 44.7374 20.3145C44.8613 19.7183 45.0573 19.1393 45.321 18.5904L47.8328 12.9237C48.0084 12.4846 46.8099 12.2154 45.2913 12.2154C43.6794 12.2952 42.1435 12.9247 40.9393 13.999C40.4559 14.4889 39.8512 14.8418 39.1869 15.0218C39.0452 15.0218 38.9829 14.934 38.9829 14.8462C38.9829 14.4948 39.8003 13.5315 39.8003 12.7707C39.8003 12.4194 39.6246 12.2154 39.1571 12.2154C38.0646 12.4214 37.0926 13.0384 36.4414 13.9395L37.0845 12.3897H34.8943L33.0357 16.6524C32.1304 18.6357 30.6415 20.7452 29.8524 20.7452C29.6484 20.7452 29.5309 20.6276 29.5309 20.3938C29.6584 19.7625 29.875 19.1524 30.174 18.5819L32.656 12.9152C32.8317 12.4761 31.6332 12.2069 30.1159 12.2069C29.0145 12.2766 27.9425 12.5909 26.9777 13.1268C26.0129 13.6627 25.1797 14.4069 24.5385 15.3052C23.3335 16.6974 22.5709 18.4173 22.3484 20.2451C22.3156 20.4946 22.3391 20.7483 22.4171 20.9876C22.4952 21.2268 22.6258 21.4456 22.7994 21.6278C22.9731 21.81 23.1853 21.951 23.4205 22.0404C23.6558 22.1299 23.908 22.1656 24.1589 22.1448C24.7827 22.0752 25.3836 21.8688 25.9186 21.5405C26.4537 21.2121 26.9097 20.7698 27.2543 20.2451C27.2109 20.408 27.1815 20.5744 27.1664 20.7423C27.1664 21.5612 27.488 22.1448 28.4811 22.1448C29.0783 22.0513 29.6494 21.8343 30.1579 21.5077C30.6665 21.1811 31.1014 20.752 31.4349 20.2479L30.7053 21.972H33.0711L35.4015 16.685C36.1609 14.9609 37.0364 14.084 37.2701 14.084C37.3579 14.084 37.4118 14.1137 37.4118 14.1718C37.4118 14.3475 37.0321 14.8447 37.0321 15.2825C37.0321 15.7202 37.2659 16.0716 37.9374 16.0716C38.5027 16.0287 39.0467 15.8371 39.5141 15.5162C38.3834 16.8575 37.6816 18.5074 37.4996 20.2522C37.4618 20.5026 37.4817 20.7584 37.558 20.9999C37.6342 21.2414 37.7647 21.4623 37.9394 21.6456C38.1141 21.829 38.3285 21.9699 38.5661 22.0577C38.8036 22.1454 39.0581 22.1777 39.3101 22.1519C39.9437 22.044 40.5482 21.8067 41.0859 21.4547C41.6236 21.1028 42.0829 20.6437 42.4353 20.1062C42.4015 20.2996 42.3821 20.4951 42.3772 20.6913C42.3601 20.88 42.3832 21.0702 42.4449 21.2493C42.5066 21.4284 42.6056 21.5924 42.7353 21.7306C42.865 21.8687 43.0224 21.9778 43.1973 22.0506C43.3722 22.1235 43.5605 22.1585 43.7499 22.1533C44.7728 22.1533 45.5604 21.5102 46.5833 20.2833L45.8239 21.9833H48.2776L50.4975 16.9258C51.4608 14.7342 52.8053 13.5641 53.447 13.5641C53.5887 13.5343 53.7389 13.6817 53.7686 13.8276V13.8857C53.7318 14.137 53.6632 14.3826 53.5646 14.6167L50.3516 22.0117H52.8634L55.1116 16.8677C56.1033 14.6464 57.1856 13.5641 57.9733 13.5641C58.2353 13.5641 58.3232 13.6817 58.3232 13.9437C58.3039 14.2266 58.2349 14.5038 58.1192 14.7626L55.929 19.4376C55.7182 19.8781 55.5896 20.3534 55.5494 20.8401C55.5494 21.5711 55.929 22.1845 57.0383 22.1845C58.4394 22.1845 59.5203 21.1036 60.7471 19.524V19.8456C60.7463 20.1862 60.8178 20.5231 60.9569 20.8341C61.096 21.1451 61.2994 21.423 61.5538 21.6495C61.8082 21.876 62.1077 22.046 62.4326 22.1483C62.7576 22.2505 63.1005 22.2826 63.4388 22.2426C65.687 22.2426 67.4692 20.7225 68.5784 18.2674C68.9825 17.3978 69.2487 16.4706 69.3675 15.5191C69.6118 15.6386 69.8846 15.6876 70.1552 15.6607C70.5239 15.678 70.8894 15.5864 71.2064 15.3972L70.8267 16.2472C70.3889 17.1822 69.8917 18.2051 69.512 19.0806C69.2644 19.5941 69.1159 20.1497 69.0743 20.7182C69.0544 20.9201 69.079 21.1238 69.1464 21.3152C69.2137 21.5065 69.3222 21.6807 69.4641 21.8256C69.606 21.9705 69.778 22.0826 69.9679 22.1539C70.1578 22.2252 70.361 22.254 70.5632 22.2383C71.2425 22.1105 71.8884 21.8448 72.461 21.4577C73.0336 21.0705 73.5207 20.57 73.8924 19.9872C73.8327 20.2561 73.8033 20.5307 73.8045 20.8061C73.8045 21.5371 74.0383 22.2383 75.0314 22.2383C75.6389 22.1563 76.2208 21.9407 76.7352 21.6071C77.2496 21.2735 77.6837 20.8301 78.0064 20.3088L77.2768 22.0088H79.7304L81.6869 17.5364C82.7961 15.0218 83.9068 13.5017 84.9579 13.5017C85.0416 13.5 85.1232 13.5286 85.1875 13.5822C85.2518 13.6358 85.2945 13.7109 85.3079 13.7936V13.8814C85.0268 14.8305 84.6345 15.743 84.1391 16.6C83.7389 17.4274 83.3609 18.2654 83.0058 19.1132C82.7451 19.6318 82.596 20.1993 82.568 20.7792C82.5503 20.9639 82.5736 21.1503 82.6363 21.325C82.699 21.4997 82.7995 21.6583 82.9307 21.7896C83.0618 21.9209 83.2204 22.0216 83.395 22.0845C83.5696 22.1474 83.756 22.1709 83.9408 22.1533C84.6817 22.0282 85.3876 21.7471 86.0118 21.3288C86.6361 20.9104 87.1644 20.3643 87.5618 19.7266C87.3898 20.2253 87.3012 20.7489 87.2997 21.2764C87.2665 21.5569 87.2958 21.8413 87.3855 22.1091C87.4751 22.3769 87.623 22.6216 87.8184 22.8255C88.0138 23.0295 88.2519 23.1876 88.5157 23.2887C88.7794 23.3897 89.0623 23.4311 89.3439 23.4099C90.1415 23.4005 90.9168 23.1453 91.5639 22.6789C92.4655 21.9731 93.2451 21.1241 93.8716 20.1657L93.4338 19.7563C92.909 20.5483 92.2692 21.2578 91.5355 21.8615C91.185 22.1637 90.7428 22.3389 90.2803 22.3587C89.7548 22.3587 89.4304 22.0952 89.4304 21.4521C89.5385 20.5079 89.8053 19.5888 90.2194 18.7335C90.2194 18.7335 90.8909 17.2134 91.5341 15.7812C92.0597 14.5529 92.5853 13.3842 92.6674 13.1504H94.2739L94.5955 12.4194H93.0188L94.5388 8.97266Z" fill="white"/>
<path fill-rule="evenodd" clip-rule="evenodd" d="M105.309 12.4334L107.537 7.24414H104.896L102.641 12.4334H97.0536L96.1045 14.5981H101.713L99.4875 19.7278H102.128L104.383 14.5981H109.992L110.911 12.4334H105.309Z" fill="white"/>
</svg>
